<svg width="24" height="24" viewBox="0 0 24 24" fill="none" xmlns="http://www.w3.org/2000/svg">
<path d="M11.8 13H15C15.2833 13 15.521 12.904 15.713 12.712C15.905 12.52 16.0007 12.2827 16 12C16 11.7167 15.904 11.4793 15.712 11.288C15.52 11.0967 15.2827 11.0007 15 11H11.8L12.7 10.1C12.8833 9.91667 12.975 9.68333 12.975 9.4C12.975 9.11667 12.8833 8.88333 12.7 8.7C12.5167 8.51667 12.2833 8.425 12 8.425C11.7167 8.425 11.4833 8.51667 11.3 8.7L8.7 11.3C8.5 11.5 8.4 11.7333 8.4 12C8.4 12.2667 8.5 12.5 8.7 12.7L11.3 15.3C11.4833 15.4833 11.7167 15.575 12 15.575C12.2833 15.575 12.5167 15.4833 12.7 15.3C12.8833 15.1167 12.975 14.8833 12.975 14.6C12.975 14.3167 12.8833 14.0833 12.7 13.9L11.8 13ZM12 22C10.6167 22 9.31667 21.7373 8.1 21.212C6.88333 20.6867 5.825 19.9743 4.925 19.075C4.025 18.175 3.31267 17.1167 2.788 15.9C2.26333 14.6833 2.00067 13.3833 2 12C2 10.6167 2.26267 9.31667 2.788 8.1C3.31333 6.88333 4.02567 5.825 4.925 4.925C5.825 4.025 6.88333 3.31267 8.1 2.788C9.31667 2.26333 10.6167 2.00067 12 2C13.3833 2 14.6833 2.26267 15.9 2.788C17.1167 3.31333 18.175 4.02567 19.075 4.925C19.975 5.825 20.6877 6.88333 21.213 8.1C21.7383 9.31667 22.0007 10.6167 22 12C22 13.3833 21.7373 14.6833 21.212 15.9C20.6867 17.1167 19.9743 18.175 19.075 19.075C18.175 19.975 17.1167 20.6877 15.9 21.213C14.6833 21.7383 13.3833 22.0007 12 22ZM12 20C14.2333 20 16.125 19.225 17.675 17.675C19.225 16.125 20 14.2333 20 12C20 9.76667 19.225 7.875 17.675 6.325C16.125 4.775 14.2333 4 12 4C9.76667 4 7.875 4.775 6.325 6.325C4.775 7.875 4 9.76667 4 12C4 14.2333 4.775 16.125 6.325 17.675C7.875 19.225 9.76667 20 12 20Z" fill="#85BD48"/>
</svg>
