<svg width="24" height="24" viewBox="0 0 24 24" fill="none" xmlns="http://www.w3.org/2000/svg">
<path d="M10.5895 13.4095C10.9995 13.7995 10.9995 14.4395 10.5895 14.8295C10.1995 15.2195 9.55953 15.2195 9.16953 14.8295C8.23291 13.8915 7.70684 12.6201 7.70684 11.2945C7.70684 9.96895 8.23291 8.69756 9.16953 7.75953L12.7095 4.21953C13.6476 3.28291 14.919 2.75684 16.2445 2.75684C17.5701 2.75684 18.8415 3.28291 19.7795 4.21953C20.7161 5.15756 21.2422 6.42895 21.2422 7.75453C21.2422 9.0801 20.7161 10.3515 19.7795 11.2895L18.2895 12.7795C18.2995 11.9595 18.1695 11.1395 17.8895 10.3595L18.3595 9.87953C18.6399 9.60221 18.8624 9.27206 19.0143 8.90816C19.1662 8.54426 19.2444 8.15385 19.2444 7.75953C19.2444 7.3652 19.1662 6.97479 19.0143 6.6109C18.8624 6.247 18.6399 5.91684 18.3595 5.63953C18.0822 5.35919 17.7521 5.13664 17.3882 4.98475C17.0243 4.83286 16.6339 4.75465 16.2395 4.75465C15.8452 4.75465 15.4548 4.83286 15.0909 4.98475C14.727 5.13664 14.3968 5.35919 14.1195 5.63953L10.5895 9.16953C10.3092 9.44684 10.0866 9.777 9.93475 10.1409C9.78286 10.5048 9.70465 10.8952 9.70465 11.2895C9.70465 11.6839 9.78286 12.0743 9.93475 12.4382C10.0866 12.8021 10.3092 13.1322 10.5895 13.4095ZM13.4095 9.16953C13.7995 8.77953 14.4395 8.77953 14.8295 9.16953C15.7661 10.1076 16.2922 11.3789 16.2922 12.7045C16.2922 14.0301 15.7661 15.3015 14.8295 16.2395L11.2895 19.7795C10.3515 20.7161 9.0801 21.2422 7.75453 21.2422C6.42895 21.2422 5.15756 20.7161 4.21953 19.7795C3.28291 18.8415 2.75684 17.5701 2.75684 16.2445C2.75684 14.919 3.28291 13.6476 4.21953 12.7095L5.70953 11.2195C5.69953 12.0395 5.82953 12.8595 6.10953 13.6495L5.63953 14.1195C5.35919 14.3968 5.13664 14.727 4.98475 15.0909C4.83286 15.4548 4.75465 15.8452 4.75465 16.2395C4.75465 16.6339 4.83286 17.0243 4.98475 17.3882C5.13664 17.7521 5.35919 18.0822 5.63953 18.3595C5.91684 18.6399 6.247 18.8624 6.6109 19.0143C6.97479 19.1662 7.3652 19.2444 7.75953 19.2444C8.15385 19.2444 8.54426 19.1662 8.90816 19.0143C9.27206 18.8624 9.60221 18.6399 9.87953 18.3595L13.4095 14.8295C13.6899 14.5522 13.9124 14.2221 14.0643 13.8582C14.2162 13.4943 14.2944 13.1039 14.2944 12.7095C14.2944 12.3152 14.2162 11.9248 14.0643 11.5609C13.9124 11.197 13.6899 10.8668 13.4095 10.5895C13.3124 10.4985 13.235 10.3886 13.1821 10.2664C13.1291 10.1443 13.1018 10.0126 13.1018 9.87953C13.1018 9.74643 13.1291 9.61475 13.1821 9.49262C13.235 9.3705 13.3124 9.26054 13.4095 9.16953Z" fill="#08706D"/>
</svg>
